<svg width="1024" height="1024" viewBox="0 0 1024 1024" fill="none" xmlns="http://www.w3.org/2000/svg">
  <rect width="1024" height="1024" fill="#0B5C2E"/>
  <path d="M150 512 C150 307.44 316.44 141 521 141 C725.56 141 892 307.44 892 512 C892 716.56 725.56 883 521 883 C316.44 883 150 716.56 150 512" fill="white"/>
  <path d="M200 512 C200 334.93 344.93 190 522 190 C699.07 190 844 334.93 844 512 C844 689.07 699.07 834 522 834 C344.93 834 200 689.07 200 512" fill="#0B5C2E"/>
  <path d="M250 512 C250 362.41 371.41 241 521 241 C670.59 241 792 362.41 792 512 C792 661.59 670.59 783 521 783 C371.41 783 250 661.59 250 512" fill="white"/>
</svg>